<svg width="64" height="40" viewBox="0 0 64 40" fill="none" xmlns="http://www.w3.org/2000/svg">
<path d="M26.3404 20.9049C26.3404 19.0849 25.5304 17.5649 22.9604 17.5649C21.5504 17.5649 20.4904 17.9649 19.9604 18.2649L20.4004 19.7949C20.9104 19.4949 21.7404 19.2249 22.5304 19.2249C23.7204 19.2249 23.9404 19.8049 23.9404 20.2249V20.3149C21.2004 20.3149 19.4004 21.2649 19.4004 23.2749C19.4004 24.5049 20.3304 25.6449 21.9004 25.6449C22.8204 25.6449 23.6104 25.3149 24.1104 24.6949H24.1604L24.3004 25.4649H26.4704C26.3804 25.0349 26.3404 24.3249 26.3404 23.6049V20.9049ZM24.0204 22.6549C24.0204 22.7949 24.0004 22.9349 23.9704 23.0649C23.8104 23.5549 23.3104 23.9549 22.7204 23.9549C22.1804 23.9549 21.7704 23.6549 21.7704 23.0349C21.7704 22.1149 22.7504 21.8149 24.0104 21.8149V22.6549H24.0204Z" fill="#E1251B"/>
<path d="M36.5504 17.5649C35.9804 17.5649 35.5104 17.7049 35.0804 17.9449C34.7004 18.1649 34.3704 18.4849 34.0704 18.8949H34.0404C33.7104 18.0849 32.9304 17.5649 31.9204 17.5649C30.6104 17.5649 29.9104 18.2949 29.5804 18.7949H29.5304L29.4404 17.7349H27.4004C27.4304 18.4249 27.4604 19.2349 27.4604 20.2049V25.4649H29.8004V20.9749C29.8004 20.7649 29.8204 20.5449 29.8904 20.3549C30.0304 19.9749 30.4004 19.5049 31.0104 19.5049C31.7804 19.5049 32.1304 20.1649 32.1304 21.1349V25.4649H34.4704V20.9449C34.4704 20.7549 34.5004 20.5149 34.5504 20.3449C34.7204 19.8849 35.1004 19.5049 35.6704 19.5049C36.4404 19.5049 36.8104 20.1549 36.8104 21.2749V25.4649H39.1504V20.9149C39.1504 18.6049 38.0304 17.5649 36.5404 17.5649H36.5504Z" fill="#E1251B"/>
<path d="M45.0104 17.5649C43.8904 17.5649 43.0004 18.0049 42.4304 18.8149H42.4004L42.2904 17.7349H40.2004C40.2304 18.4649 40.2604 19.3149 40.2604 20.3249V28.5949H42.6604V24.7549H42.6904C43.0404 25.2649 43.7604 25.6349 44.7004 25.6349C46.4204 25.6349 48.2104 24.3049 48.2104 21.4949C48.2104 19.0249 46.6904 17.5549 45.0004 17.5549L45.0104 17.5649ZM44.1204 23.7949C43.4204 23.7949 42.8704 23.3049 42.7104 22.6549C42.6804 22.4949 42.6604 22.3349 42.6604 22.1449V21.0849C42.6604 20.9449 42.6804 20.7849 42.7104 20.6549C42.8704 19.9449 43.4704 19.4349 44.1504 19.4349C45.2304 19.4349 45.7804 20.3649 45.7804 21.6049C45.7804 22.9149 45.1604 23.7849 44.1204 23.7849V23.7949Z" fill="#002F87"/>
<path d="M58.0204 17.5649C57.4504 17.5649 56.9804 17.7049 56.5504 17.9449C56.1704 18.1649 55.8404 18.4849 55.5404 18.8949H55.5104C55.1804 18.0849 54.4004 17.5649 53.3904 17.5649C52.0804 17.5649 51.3804 18.2949 51.0504 18.7949H51.0004L50.9104 17.7349H48.8704C48.9004 18.4249 48.9304 19.2349 48.9304 20.2049V25.4649H51.2704V20.9749C51.2704 20.7649 51.2904 20.5449 51.3604 20.3549C51.5004 19.9749 51.8704 19.5049 52.4804 19.5049C53.2504 19.5049 53.6004 20.1649 53.6004 21.1349V25.4649H55.9404V20.9449C55.9404 20.7549 55.9704 20.5149 56.0204 20.3449C56.1904 19.8849 56.5704 19.5049 57.1404 19.5049C57.9104 19.5049 58.2804 20.1549 58.2804 21.2749V25.4649H60.6204V20.9149C60.6204 18.6049 59.5004 17.5649 58.0104 17.5649H58.0204Z" fill="#002F87"/>
<path d="M8.55957 14.915C9.00957 15.125 9.33957 15.555 9.40957 16.065C12.7596 16.755 15.2896 19.725 15.2896 23.285C15.2896 23.325 15.2896 23.365 15.2896 23.405H16.3196V23.285C16.3196 18.855 12.9096 15.235 8.56957 14.915H8.55957Z" fill="#002F87"/>
<path d="M7.92 17.375C4.65 17.375 2 20.015 2 23.295C2 23.515 2.01 23.735 2.04 23.945H3.15C3.2 26.755 5.47 29.095 8.21 29.205C11.35 29.055 13.84 26.455 13.84 23.295C13.84 20.135 11.19 17.375 7.92 17.375ZM2.76 23.615C2.56 23.615 2.41 23.455 2.41 23.265C2.41 23.075 2.56 22.915 2.76 22.915C2.96 22.915 3.11 23.075 3.11 23.265C3.11 23.455 2.95 23.615 2.76 23.615ZM7.86 17.815C8.05 17.815 8.21 17.965 8.21 18.165C8.21 18.365 8.06 18.515 7.86 18.515C7.66 18.515 7.51 18.355 7.51 18.165C7.51 17.975 7.67 17.815 7.86 17.815ZM7.86 28.715C7.67 28.715 7.51 28.555 7.51 28.365C7.51 28.175 7.67 28.015 7.86 28.015C8.05 28.015 8.21 28.175 8.21 28.365C8.21 28.555 8.06 28.715 7.86 28.715ZM8.44 23.465C8.44 23.755 8.21 23.985 7.92 23.985C7.68 23.985 7.49 23.825 7.42 23.605L4.69 21.655L4.89 21.345L7.78 22.965C7.78 22.965 7.88 22.945 7.93 22.945C7.97 22.945 8 22.945 8.03 22.955L10.27 19.345L10.43 19.435L8.34 23.155C8.41 23.245 8.45 23.345 8.45 23.465H8.44ZM12.96 22.915C13.15 22.915 13.31 23.075 13.31 23.265C13.31 23.455 13.16 23.615 12.96 23.615C12.76 23.615 12.61 23.455 12.61 23.265C12.61 23.075 12.77 22.915 12.96 22.915Z" fill="#002F87"/>
<path d="M60.9004 17.315C60.9604 17.315 61.0504 17.295 61.1504 17.295C61.2704 17.295 61.3604 17.315 61.4204 17.355C61.4704 17.395 61.5004 17.455 61.5004 17.525C61.5004 17.625 61.4304 17.705 61.3504 17.725C61.4104 17.755 61.4404 17.805 61.4604 17.875C61.4904 17.975 61.5104 18.075 61.5304 18.115H61.3404C61.3404 18.115 61.3104 18.025 61.2804 17.925C61.2604 17.825 61.2204 17.795 61.1504 17.795H61.1004V18.125H60.9204V17.315H60.9004ZM61.0804 17.665H61.1504C61.2404 17.665 61.3004 17.615 61.3004 17.545C61.3004 17.475 61.2504 17.435 61.1704 17.435C61.1204 17.435 61.1004 17.435 61.0904 17.435V17.655L61.0804 17.665Z" fill="#002F87"/>
<path d="M61.8503 17.725C61.8503 18.095 61.5504 18.395 61.1804 18.395C60.8104 18.395 60.5103 18.095 60.5103 17.725C60.5103 17.355 60.8104 17.055 61.1804 17.055C61.5504 17.055 61.8503 17.355 61.8503 17.725ZM61.1804 16.905C60.7304 16.905 60.3604 17.265 60.3604 17.725C60.3604 18.185 60.7304 18.545 61.1804 18.545C61.6304 18.545 62.0004 18.185 62.0004 17.725C62.0004 17.265 61.6304 16.905 61.1804 16.905Z" fill="#002F87"/>
<path d="M23.77 14.9149C23.47 15.0149 22.91 15.1549 22.34 15.1549C21.56 15.1549 21 14.9549 20.6 14.5849C20.21 14.2149 20 13.6549 20 13.0249C20 11.6049 21.04 10.7949 22.44 10.7949C22.99 10.7949 23.42 10.9049 23.62 10.9949L23.42 11.7749C23.19 11.6649 22.9 11.5949 22.43 11.5949C21.63 11.5949 21.01 12.0549 21.01 12.9749C21.01 13.8949 21.57 14.3749 22.36 14.3749C22.58 14.3749 22.75 14.3549 22.83 14.3149V13.4149H22.17V12.6649H23.76V14.9149H23.77Z" fill="#002F87"/>
<path d="M24.5105 13.0348C24.5105 12.5748 24.5105 12.2748 24.4805 12.0148H25.3005L25.3405 12.5948H25.3705C25.5305 12.1348 25.9005 11.9448 26.2105 11.9448C26.3005 11.9448 26.3405 11.9448 26.4105 11.9648V12.8748C26.3305 12.8648 26.2505 12.8448 26.1405 12.8448C25.7905 12.8448 25.5405 13.0248 25.4805 13.3348C25.4705 13.3948 25.4605 13.4648 25.4605 13.5548V15.1248H24.5005V13.0348H24.5105Z" fill="#002F87"/>
<path d="M29.8199 14.1149C29.8199 14.5249 29.8299 14.8449 29.8399 15.1149H28.9999L28.9599 14.6749H28.9399C28.8199 14.8649 28.5299 15.1849 27.9699 15.1849C27.3399 15.1849 26.8799 14.7949 26.8799 13.8349V12.0149H27.8399V13.6849C27.8399 14.1349 27.9899 14.4049 28.3299 14.4049C28.5999 14.4049 28.7499 14.2249 28.8099 14.0649C28.8399 14.0049 28.8499 13.9349 28.8499 13.8549V12.0149H29.8099V14.1149H29.8199Z" fill="#002F87"/>
<path d="M30.5896 13.0548C30.5896 12.6448 30.5796 12.3048 30.5596 12.0148H31.3996L31.4396 12.4448H31.4496C31.6796 12.1248 32.0296 11.9448 32.4796 11.9448C33.1596 11.9448 33.7696 12.5348 33.7696 13.5248C33.7696 14.6548 33.0496 15.1848 32.3596 15.1848C31.9896 15.1848 31.6996 15.0348 31.5596 14.8248H31.5496V16.3648H30.5896V13.0548ZM31.5496 13.7848C31.5496 13.8648 31.5496 13.9248 31.5696 13.9848C31.6296 14.2448 31.8496 14.4448 32.1296 14.4448C32.5496 14.4448 32.7996 14.0948 32.7996 13.5748C32.7996 13.0848 32.5796 12.7048 32.1496 12.7048C31.8796 12.7048 31.6396 12.9048 31.5696 13.1948C31.5596 13.2448 31.5496 13.3048 31.5496 13.3648V13.7848Z" fill="#002F87"/>
<path d="M35.8305 15.1848C34.9205 15.1848 34.2305 14.5948 34.2305 13.5848C34.2305 12.5748 34.8905 11.9448 35.8905 11.9448C36.8305 11.9448 37.4705 12.5948 37.4705 13.5348C37.4705 14.6648 36.6705 15.1848 35.8405 15.1848H35.8305ZM35.8505 14.4948C36.2305 14.4948 36.4605 14.1248 36.4605 13.5648C36.4605 13.1048 36.2805 12.6348 35.8505 12.6348C35.4205 12.6348 35.2205 13.1048 35.2205 13.5648C35.2205 14.0948 35.4405 14.4948 35.8505 14.4948Z" fill="#002F87"/>
</svg>
